<?xml version="1.0" encoding="utf-8"?>
<!-- Generator: Adobe Illustrator 22.1.0, SVG Export Plug-In . SVG Version: 6.00 Build 0)  -->
<svg version="1.1" id="Calque_1" xmlns="http://www.w3.org/2000/svg" xmlns:xlink="http://www.w3.org/1999/xlink" x="0px" y="0px"
	 viewBox="0 0 841.9 595.3" style="enable-background:new 0 0 841.9 595.3;" xml:space="preserve">
<style type="text/css">
	.st0{fill:#54D3A7;}
	.st1{fill:#57CFA4;}
	.st2{fill:#59CFA4;}
	.st3{fill:#59CEA4;}
	.st4{fill:#5BCEA4;}
	.st5{fill:#54CEA2;}
	.st6{fill:#050505;}
	.st7{fill:#070707;}
	.st8{fill:#090909;}
	.st9{fill:#060606;}
	.st10{fill:#040404;}
	.st11{fill:#57D2A6;}
	.st12{fill:#4B916B;}
	.st13{fill:#49C093;}
	.st14{fill:#58B38B;}
	.st15{fill:#54D4A7;}
	.st16{fill:#55D3A7;}
	.st17{fill:#58CFA5;}
</style>
<g>
	<g>
		<path class="st0" d="M430.1,446.3c-6.5,0-13.1,0.5-19.6-0.1c-8.1-0.7-16.1-2.1-24.1-3.7c-6.9-1.4-13.9-3.2-20.5-5.6
			c-9.1-3.3-18.3-6.9-26.9-11.3c-10-5.2-19.8-11-29-17.5c-11.3-8-21.5-17.5-30.8-27.8c-8.4-9.4-16.2-19.3-22.5-30.1
			c-5.8-9.9-11-20.3-15.3-31c-4.1-10.1-7-20.7-9.8-31.2c-1.5-5.6-1.5-11.6-2.8-17.3c-2.8-12.3-1.8-24.7-1.5-37.1
			c0.2-8.7,1.9-17.5,3.3-26.2c0.9-6.1,2-12.2,3.8-18c2.4-7.9,5.1-15.7,8.3-23.3c5.2-12.5,11.5-24.5,19.3-35.6
			c9.9-14.1,20.8-27.3,34.1-38.5c9.6-8.1,19.5-15.6,30.3-22c12.3-7.3,25.1-13.4,38.8-17.8c4.9-1.6,10-2.7,15-4
			c4.4-1.1,8.7-2.5,13.2-3.2c7.9-1.2,15.8-2,23.7-2.6c6.1-0.5,12.2-0.8,18.3-0.5c8,0.4,15.9,1.4,23.9,2.2
			c12.5,1.3,24.6,4.3,36.4,8.4c14.4,4.9,28.3,11,40.9,19.6c10.6,7.2,21.1,14.6,30.8,23c7.5,6.5,13.8,14.4,20.4,21.9
			c8,9.2,14.7,19.4,20.3,30.1c5,9.6,9.3,19.5,13.1,29.6c3.2,8.4,5.4,17.1,7.5,25.8c1.4,5.9,1.7,12,2.8,18
			c2.3,13.3,0.8,26.8,0.9,40.2c0,6-1.6,11.9-2.6,17.9c-0.8,4.6-1.4,9.3-2.6,13.8c-2.3,8-5,15.9-7.5,23.9
			c-3.3,10.4-8.4,20.1-13.8,29.6c-6.6,11.5-14.4,22.1-23.1,32.1c-10.9,12.7-23.3,23.7-37,33.2c-11,7.6-22.4,14.6-35,19.3
			c-9.1,3.4-18.1,7.2-27.4,9.8c-16.5,4.7-33.4,7-50.7,6.1C431.7,446.2,430.9,446.2,430.1,446.3C430.1,446.2,430.1,446.3,430.1,446.3
			z M425.5,432.7c56.3-0.4,103-19.3,140.4-58.5c38.9-40.9,56.3-90.3,51.4-146.7c-4.1-48.2-24.4-89.1-60.2-121.7
			C510.9,63.8,456,48.5,394.8,59.2c-45.8,8-84,31.5-112.7,67.9c-29.4,37.4-43.4,80.8-40.2,128.9c3.4,51.5,24.6,94.6,62.7,128.9
			C339.5,416.1,380.9,431.5,425.5,432.7z"/>
		<path class="st1" d="M530.9,520.9c-1.5,0-2.9,0-4.5,0c0-11.6,0-23,0-34.9c1.7,0,3.5-0.3,5.2,0.1c0.9,0.2,1.8,1.3,2.2,2.2
			c3.3,8,6.4,16.1,9.6,24.2c0.1,0.3,0.4,0.6,0.7,1.2c3.1-7.7,6.1-15.1,9.1-22.6c2.2-5.3,2.2-5.3,7.9-5c0,11.6,0,23.2,0,34.8
			c-1.5,0-2.9,0-4.5,0c0-8.6,0-17,0-26.2c-3.7,9-7.1,17.5-10.6,26c-2.9,1-4.4-0.2-5.5-3.1c-2.9-7.7-6.1-15.3-9.7-22.9c0,1,0,2,0,3.1
			C530.9,505.5,530.9,513.2,530.9,520.9z"/>
		<path class="st2" d="M473.9,486.1c1.5,0,2.9,0,4.5,0c0,11.6,0,23,0,34.8c-1.5,0-3,0-4.5,0c0-4,0.1-8,0-12c0-1.3-0.4-2.6-0.6-3.9
			c0,0,0.1,0.1,0.1,0.1c-0.8-0.2-1.6-0.6-2.4-0.6c-4.1-0.1-8.2-0.1-12.4,0c-0.8,0-1.6,0.4-2.4,0.6c0,5.2,0,10.4,0,15.8
			c-1.8,0-3.3,0-5.1,0c0-11.5,0-23,0-34.7c1.6,0,3.2,0,5,0c0,4.8,0,9.6,0,14.6c5.9,0,11.6,0,17.2,0c0.2-0.8,0.6-1.6,0.6-2.4
			C473.9,494.3,473.9,490.2,473.9,486.1z"/>
		<path class="st3" d="M601.7,486c5.7,0,11.1-0.3,16.5,0.1c5.3,0.4,9.4,5.6,9.3,10.8c-0.2,6.1-4.5,10.4-10.8,10.5
			c-3.1,0.1-6.3,0-9.8,0c0,4.5,0,8.9,0,13.4c-1.9,0-3.4,0-5.2,0C601.7,509.3,601.7,497.9,601.7,486z M606.9,503.8
			c2.3,0,4.3,0.1,6.2,0c1.4-0.1,2.9-0.3,4.3-0.7c3.2-0.7,4.7-2.9,4.7-6.5c0-3.3-1.7-6-4.6-6.3c-3.5-0.3-7-0.1-10.6-0.1
			C606.9,494.8,606.9,499.1,606.9,503.8z"/>
		<path class="st4" d="M491.1,505c0,3.8,0,7.7,0,11.8c5,0,9.7,0,14.4,0c3.5,0,3.6,0.1,3,3.9c-7.4,0-14.9,0-22.5,0
			c0-11.5,0-23,0-34.6c7.4,0,14.7,0,22.2,0c0,1.2,0,2.4,0,3.8c-5.6,0-11.1,0-16.8,0c0,3.7,0,7,0,10.8c4.9,0,9.8,0,15.1,0
			c-0.2,1.4-0.3,2.5-0.4,3.6c-3.6,0-7.2,0-10.8,0C493.9,504.4,492.5,504.8,491.1,505z"/>
		<path class="st5" d="M597.4,520.7c-3.5,0.9-5.7,0.4-6.4-3.3c-0.3-1.7-1.1-3.3-1.9-5.3c-4.3,0-8.7-0.1-13.1,0.1
			c-0.6,0-1.5,1-1.8,1.7c-1,2.2-1.8,4.5-2.7,7c-1.6,0-3.2,0-5.1,0c3.1-8.1,6.1-16.1,9.1-24.1c1.1-3,2.2-6.1,3.5-9
			c0.4-0.8,1.6-1.7,2.4-1.7c1.1,0,3,0.6,3.3,1.4C589,498.4,593.2,509.5,597.4,520.7z M587.5,507.8c-1.8-4.9-3.6-9.8-5.6-15.4
			c-2,5.6-3.7,10.3-5.6,15.4C580.2,507.8,583.7,507.8,587.5,507.8z"/>
		<path class="st6" d="M345.4,492.1c0,9.6,0,19.1,0,28.8c-1,0-1.9,0-2.8,0c0-11.6,0-23,0-34.6c2-0.9,3.1-0.1,4.2,1.6
			c5.4,8.2,11,16.4,16.5,24.6c0.6,0.9,1.2,1.7,2.2,3.2c0-10.4,0-19.9,0-29.6c1.1,0,1.9,0,2.9,0c0,11.6,0,23.1,0,34.6
			c-2.1,0.8-3.2-0.2-4.3-1.9c-6-9-12-18-18-27C345.9,492,345.7,492,345.4,492.1z"/>
		<path class="st7" d="M253.3,502.9c4.7,2.2,6.5,5.3,5.9,10c-0.5,4.2-3.2,7.2-8.1,7.7c-4.8,0.5-9.6,0.1-14.6,0.1
			c0-11.4,0-22.9,0-34.4c4.8,0,9.5-0.3,14.2,0.1c3.7,0.3,6.5,2.6,7.2,6.4c0.7,3.9-0.1,7.3-4,9.3
			C253.6,502.3,253.5,502.6,253.3,502.9z M239.4,518.7c4.2-0.2,8-0.1,11.8-0.8c3.5-0.6,5.2-3.3,5.1-6.9c-0.1-3.4-2-6.1-5.3-6.5
			c-3.8-0.4-7.7-0.1-11.6-0.1C239.4,509.2,239.4,513.7,239.4,518.7z M239.4,501.4c3.6,0,7,0.3,10.4-0.1c3.4-0.4,5.1-2.7,5.2-6.1
			c0-3.6-1.4-5.7-4.9-6.3c-3.5-0.5-7-0.5-10.7-0.7C239.4,492.9,239.4,497.1,239.4,501.4z"/>
		<path class="st8" d="M295.2,486.1c0.9,0,1.7,0,2.8,0c0,5.2,0,10.3,0,15.5c6.8,0,13.2,0,19.9,0c0-5.2,0-10.3,0-15.5
			c1.1,0,2,0,2.9,0c0,11.6,0,23.2,0,34.8c-0.9,0-1.8,0-2.9,0c0-5.5,0-10.9,0-16.4c-6.7,0-13.2,0-19.9,0c0,5.4,0,10.8,0,16.3
			c-1.1,0.1-1.9,0.2-2.9,0.2C295.2,509.3,295.2,497.8,295.2,486.1z"/>
		<path class="st9" d="M377.7,520.9c0-11.6,0-23.2,0-34.9c3.9,0,7.8-0.3,11.5,0.1c6.8,0.6,11.7,5.3,12.6,12.5
			c0.5,3.6,0.3,7.5-0.3,11.2c-1.2,6.3-6.2,10.6-12.5,11.1C385.3,521.2,381.5,520.9,377.7,520.9z M380.6,518.4
			c6.5,0.2,13.2,1.2,16.7-5.7c3.2-6.3,3.3-13.1-0.4-19.2c-3.8-6.2-10.2-5.1-16.3-4.9C380.6,498.6,380.6,508.3,380.6,518.4z"/>
		<path class="st10" d="M269.7,501.7c5.5,0,10.8,0,16.1,0c0,0.9,0,1.5,0,2.5c-5.3,0-10.6,0-16,0c0,4.8,0,9.4,0,14.2
			c6.1,0,12.2,0,18.5,0c0,1,0,1.7,0,2.4c-7.2,0-14.3,0-21.4,0c0-11.6,0-23.2,0-34.8c7.1,0,14.1,0,21.3,0c0,0.7,0.1,1.4,0.2,2.4
			c-6.3,0-12.3,0-18.6,0C269.7,492.9,269.7,497.1,269.7,501.7z"/>
		<path class="st11" d="M434.2,520.9c-1.3,0-2.5,0-4.1,0c0-10.2,0-20.3,0-30.8c-3.9,0-7.5,0-11.2,0c0-1.5,0-2.6,0-4.1
			c8.5,0,17,0,25.4,0.1c0.6,0,1.7,1.3,1.6,1.8c-0.2,0.8-1,2-1.7,2.1c-2.2,0.3-4.5,0-6.8,0.1c-0.9,0-1.8,0.4-2.7,0.6
			c-0.2,0.9-0.5,1.9-0.5,2.8C434.1,502.7,434.2,511.8,434.2,520.9z"/>
		<path d="M332.8,520.9c-1,0-1.7,0-2.6,0c0-11.6,0-23.1,0-34.7c0.8,0,1.6,0,2.6,0C332.8,497.7,332.8,509.2,332.8,520.9z"/>
		<path class="st12" d="M561.1,520.9c0-11.6,0-23.2,0-34.8c0.2,0.5,0.5,1,0.5,1.5c0,10.6,0,21.2,0,31.9
			C561.7,519.9,561.3,520.4,561.1,520.9z"/>
		<path class="st13" d="M434.2,520.9c0-9.1,0-18.2,0-27.3c0-0.9,0.3-1.9,0.5-2.8c0,9.5,0.1,19.1,0,28.6
			C434.7,519.9,434.4,520.4,434.2,520.9z"/>
		<path class="st14" d="M530.9,520.9c0-7.7,0-15.4,0-23.1c0.2,1.6,0.5,3.2,0.5,4.8c0.1,5.6,0.1,11.2,0,16.8
			C531.4,519.9,531.1,520.4,530.9,520.9z"/>
		<path class="st12" d="M456.1,505c0.8-0.2,1.6-0.6,2.4-0.6c4.1-0.1,8.2-0.1,12.4,0c0.8,0,1.6,0.4,2.4,0.6
			C467.6,505,461.9,505,456.1,505z"/>
		<path class="st12" d="M473.3,504.9c0.2,1.3,0.6,2.6,0.6,3.9c0.1,4,0,8,0,12c-0.2-1.7-0.5-3.3-0.5-5
			C473.2,512.2,473.3,508.6,473.3,504.9z"/>
		<path class="st12" d="M473.9,486.1c0,4.1,0.1,8.2,0,12.3c0,0.8-0.4,1.6-0.6,2.4c0-4,0-8,0.1-12.1
			C473.3,487.8,473.7,487,473.9,486.1z"/>
		<path class="st12" d="M491.1,505c1.4-0.2,2.8-0.6,4.1-0.6c3.6-0.1,7.2,0,10.8,0c-1.8,0.2-3.5,0.5-5.3,0.6
			C497.6,505,494.3,505,491.1,505z"/>
		<path class="st15" d="M345.7,98.6c-1.4,0-2.8-0.1-4.1,0.1c-0.7,0.1-2.6-0.2-1.4,1.8c0.1,0.2-0.5,1-0.9,1.2
			c-4.3,1.8-8.6,1.4-13.1,0.4c18.7-14.4,39.5-24.2,62.2-29.5c41.8-9.8,82.2-5.1,120.7,14.7c-1.4,0-2.9,0-4.7,0c0.6,0.7,1,1.1,1.8,2
			c-4.9,1.8-9.5,3.4-14.1,5.2c-1.5,0.6-4.1,0.5-3.3,3.1c1.3,4.5,2.6,5.3,5.8,4.2c0.5-0.2,0.9-0.4,1.4-0.6c2.7-1.5,4.7-0.9,5.9,1.9
			c0.1,0.3,0.3,0.5,0.5,0.7c2.9,5.1,4.4,5.5,9.4,2.1c-2.3-3.5,2.2-3.3,2.9-5.4c-1.2-1-2.5-2-4.3-3.5c1.3-0.6,2.1-1.1,3-1.5
			c1.4-0.6,3.1-0.8,4.3-1.7c1.9-1.5,3.3-1.3,4.9,0.5c-0.6,0.3-1.3,0.4-1.8,0.8c-0.8,0.5-1.5,1.2-2.3,1.8c1,1.1,1.8,2.8,3,3.2
			c2.1,0.7,4.5,0.5,6.7,0.8c1.9,0.3,3.7,0.7,5.6,1c0,0.3-0.1,0.6-0.1,0.9c-3-0.3-6-0.5-9-0.8c-0.1,0.3-0.2,0.5-0.2,0.8
			c0.6,0.8,1.1,1.6,1.9,2.6c-3.6,0-5.7,1.7-7.1,4.5c-0.2,0.5-1.4,0.7-2.2,0.7c-1.9,0.1-3.9,0.1-5.8,0c-1.4,0-2.9-0.2-4.3-0.4
			c-2.4-0.3-4.8-0.7-6.8-0.9c-0.3-1.8-0.7-3.6-1-5.4c-0.9,0.3-2.5,0.5-2.5,0.8c-0.1,1.7,0.2,3.4,0.4,5.6c-0.7,0.1-1.9,0.6-3.2,0.5
			c-2.3,0-3.8,0.9-5.7,2.3c-2.5,1.9-6,2.5-9,3.7c-1.2,0.5-2.3,0.9-3.5,1.4c0.1,0.2,0.2,0.5,0.2,0.7c-1.9,0-3.9,0-5.8,0
			c-0.1,0.3-0.1,0.5-0.2,0.8c1.7,0.8,3.3,1.7,5,2.4c3.1,1.3,3.7,2.5,3.1,6c-0.5,2.6-2.5,2.5-4.3,2.3c-3.3-0.4-6.6-0.9-9.9-1.4
			c-2.3-0.4-3.2,0.2-3.1,2.8c0.1,2.8-0.4,5.7-0.8,8.5c-0.5,3.4,0.2,4.2,3.5,4.5c1.2,0.1,2.3,1,3.5,1.6c0.6,0.3,1.3,1.3,1.8,1.2
			c3.5-1,7-1.9,10.4-3.4c0.8-0.3,0.9-2.3,1.4-3.5c0.4-0.9,0.7-1.9,1.4-2.4c1.3-1,2.8-1.8,4.2-2.7c0.6-0.4,1.6-0.8,1.6-1.2
			c-0.2-3.9,2.2-2.6,4.3-2.4c1.8,0.1,3.7-0.1,5.5-0.6c2.3-0.6,4-0.6,5.9,1.2c3.2,3,7,5.4,10.3,8.3c1.8,1.5,4.2,2.7,3.9,5.9
			c1.5-1.3,3.6-2.1,1.5-4.8c1.2,0,2,0,3.5,0c-5.4-4.6-13-6-15.4-12.9c0.3-0.4,0.5-0.7,0.8-1.1c3.5,2.2,7,4.2,10.4,6.5
			c3.3,2.3,6.4,5,8,9c0.4,1.1,1.7,1.9,2.6,2.8c1.2,1,3,1.4,2.8,3.6c0,0.4,1.2,0.9,2.3,1.7c0-1.3,0-2,0-2.8c1,0.2,1.8,0.4,2.6,0.5
			c0.1-0.2,0.3-0.3,0.4-0.5c-1.7-1.8-3.3-3.5-5.4-5.8c2.1,0.2,3.6,0.7,4.6-1.1c0.2-0.3,2,0.4,3.2,0.7c-1.5,2.4-0.9,5,0.7,6.7
			c4.6,5,10.7,5,16.7,5.2c6.1,0.2,6.5,0.5,5.5,6.6c-0.6,3.7,0,7.2,0.9,10.9c1.7,7,6.4,11.4,11.1,16.1c1.9,1.9,2.9,4.5,4.3,6.8
			c1.2,2,1.9,4.4,3.5,6c4.2,4.3,7.1,9.3,9.6,14.6c3.5,7.7,4.6,8.3,13.3,6c0.3,2.4,0.6,4.8,1,7.7c-4.8,1.4-9.4,2.9-14.1,4.2
			c-2.7,0.7-5.1-0.5-5.5-3.1c-0.9-6.1-6-8.7-9.5-12.8c-1.1-1.3-1.9-3-2.7-4.6c-1.1-2.2-1.7-4.7-3.2-6.6c-1.9-2.4-2.9-4.8-3.6-7.7
			c-1.9-7.9-5.4-15.2-9.6-22.2c-1.5-2.5-2.6-5.3-3.9-7.9c0.3-0.2,0.5-0.3,0.8-0.5c1.3,1.9,2.7,3.8,4,5.7c2.3-3,2.6-8.3,0.2-10.1
			c-1.5-1.1-4-1.2-6.1-1.4c-1.4-0.1-2.9,0.3-4.2,0.8c-5,1.9-9.4-0.1-13.9-1.8c-2.6-1-5.3-2.1-8-2.8c-3.2-0.8-5,0.6-5.4,3.9
			c-0.4,3.4-2.3,4.3-5.3,2.4c-1.5-0.9-3-1.9-4.3-3.1c-2.7-2.6-6-3.9-9.7-4.3c-3-0.3-4.3-2.1-3.8-5.1c0.3-2.1,0.9-4.2,1.4-6.3
			c-0.8-0.5-1.6-1.2-2.6-1.6c-0.6-0.3-1.4-0.5-2.1-0.3c-2.2,0.4-4.5,1.5-6.7,1.4c-7.3-0.5-13.6,1.8-19.9,5.2c-1.9,1-4.5,1.1-6.7,1
			c-2.7-0.1-5,0.1-6.6,2.7c-1.3,2.1-2.9,4.2-4.7,5.9c-2.8,2.5-3.9,5.7-4.2,9.1c-0.3,3.8-2.4,6.2-5.4,7.5c-4.6,2-6.6,5.8-8.5,9.9
			c-1.2,2.7-2.2,5.5-3.6,8c-2.3,4-2.2,8-1.1,12.2c1,3.9,1,7.8-0.9,11.3c-3.3,6.3-1.9,11.6,2.1,17c3.2,4.4,5.8,9.2,9,13.6
			c1.9,2.6,4.2,4.9,6.5,7.2c3,3,6.4,2.6,9.7,0.7c2.3-1.3,4.3-1,6.7-0.3c1.8,0.6,4.3,0.3,6.1-0.5c3-1.2,5.6-3.1,8.5-4.6
			c3.5-1.8,5.5-1.3,7,2.3c1.2,2.7,2.8,3.9,5.8,3.8c4.7-0.1,8.8,4.5,7,9.8c-0.8,2.4-2.1,4.8-2.1,7.2c0,2.5,1.1,5.3,2.3,7.6
			c1.8,3.4,5,6.3,6.2,9.8c2.2,6.8,3.5,14,4.6,21.1c0.3,2-0.4,4.8-1.6,6.5c-5.5,7.5-5.4,15.3-1.5,23.1c2.7,5.5,4,11.3,5.3,17.2
			c1.1,5.3,3.1,10.4,5.2,15.4c2.3,5.2,4.9,10.2,4.8,16c1.6,0.6,3.2,1.2,5.3,2c-11,6.6-21.7,12.3-33.2,16.2
			c-7.7,2.6-15.6,5.1-23.5,6.8c-7.9,1.7-16,2.7-24.1,3.4c-7.2,0.6-14.4,0.8-21.6,0.5c-6.1-0.2-12.3-0.9-18.4-1.9
			c-6.3-1-12.7-2.2-18.8-4c-8.4-2.5-16.6-5.6-24.8-8.7c-1.5-0.6-2.6-2.2-4.4-3.8c1.6-0.4,2.2-0.5,3.2-0.7c-1.8-1.1-3.4-2-5-2.9
			c0-0.3,0-0.7,0-1c1.8-0.3,3.6-0.6,5.9-1c-0.7-1.9-1.3-3.7-2.1-5.9c1.6-0.5,3.1-0.8,4.5-1.5c1.6-0.8,3.3-1.7,4.3-3
			c1.6-2.1,1.1-4.2-1.2-5.8c-1.3-0.9-2.6-1.9-4.4-3.3c2.4-0.2,4-0.3,5.6-0.6c4.1-0.7,5.5-3.9,6.2-7.5c0.8-3.6,1.1-7.4,2.5-10.8
			c1-2.5,1-4.3-0.1-6.6c-1.8-3.5,0.5-6.7,3.4-8.5c4.9-3.1,8.2-6.9,9.1-12.7c0.3-1.8,0.2-3.7-0.1-5.4c-0.6-3.3-1.6-6.5-2.2-9.7
			c-0.1-0.6,0.3-1.3,0.5-1.9c1.6-4.1,3.4-8.1,4.9-12.2c1.7-4.6,0.1-7.4-4.7-8.8c-1.7-0.5-3.3-1.3-4.8-2.2c-3.5-2.3-7.3-2.1-11.1-1.4
			c-1.6,0.3-2.7,0.2-3.9-1.2c-0.8-1-2.4-1.5-3.6-2.2c-2.4-1.2-4-0.6-5,2.1c-0.3,0.8-2.3,1.7-2.8,1.4c-1.6-1-2.9-2.4-4-3.8
			c-0.4-0.5-0.2-1.7,0-2.6c1.3-6.8-3.3-12.2-10.2-12.5c-4.5-0.2-9.2-0.4-12.5-4.5c-1.2-1.4-3.3-2.1-5-3.1c-2.5-1.5-5-2.9-7.9-4.6
			c-1.6,0.2-4,0.8-6.4,0.9c-2.8,0.1-5.5-0.2-7.5-2.6c-0.5-0.6-1.8-0.7-2.7-1c-0.1-0.3-0.3-0.5-0.4-0.8c-0.1,0.1-0.2,0.2-0.3,0.3
			c0.2,0.2,0.4,0.4,0.5,0.6c-2.3,1.8-3.2,4-1.9,6.8c-2.1,0-3.4-2.7-2.7-5.3c0.2-0.8,0.3-1.6,0.4-2.4c-0.8,0.4-1.6,0.7-2.4,1.2
			c-2.6,1.7-5.8,3.1-7.5,5.4c-2.8,3.9-5.2,8.3-2.2,13.6c2,3.6,2.7,7.4-0.7,10.9c-2.4,2.5-2.2,5.8-2.5,8.8c-0.1,0.9,0.6,2.3,1.3,2.8
			c2.1,1.2,1.4,2.4,0.6,3.9c-2.1,4.1-1.7,4.6,1.6,7.6c2.8,2.5,5.1,5.7,7.4,8.6c3.3,4.1,6.6,8.3,9.7,12.5c2.2,3.1,5.6,4.1,8.8,4.8
			c7.5,1.6,11.1,6.3,13.2,13.5c2.1,7.1,2.7,14.4,4.1,21.6c0.8,4.3,3,8.4,4.2,12.7c0.6,2.1,0.4,4.4,0.7,7.5
			c-27.9-20-48.8-44.7-62.1-75.6c-13.3-30.6-17.2-62.4-12.7-95.3c0.4-0.1,0.8-0.1,1.3-0.2c0.1,1.2,0.5,2.4,0.4,3.5
			c-0.5,3.7,1.2,6.1,4.2,8c0.7,0.5,1.2,1.7,1.2,2.6c0.1,3,0.1,6-0.1,9c-0.1,1.6-0.9,3.1-1.5,5c3.5-0.2,3.1,2,3.4,3.9
			c0.4,3.2,0.7,6.4,1.3,9.6c0.2,1,1.1,1.8,1.8,2.9c1.7-3,3.2-5.4,4.6-8c3.5,2.1,2,4.7,2,7c2.9-2,3.7-5.6,1.5-8.1
			c-0.6-0.7-2.4-1.2-3.2-0.9c-3.8,1.5-5.8-1-5.6-4.5c0.2-5.3,1.6-10.4,4-15.2c1-2.1,2-4.3,2.6-6.5c0.9-3.2-0.4-4.7-3.7-5.3
			c-1.7-0.3-3.3-1.1-5.3-1.7c4.7-6.4,8.9-12.1,13.3-18.2c-3.2-1.1-5.4,0.4-7.4,1.9c-1.6,1.3-2.9,2.9-4.4,4.4
			c-0.6,0.5-1.2,1.3-1.8,1.4c-1.8,0.2-3.8,0.6-5.4,0c-0.6-0.3-0.7-3-0.4-4.5c2-9.5,6.5-18,12.8-25.3c1.9-2.3,5-3.7,7.8-5
			c0.9-0.4,2.8,0.5,3.9,1.2c1.7,1.1,2.8,1.2,3.8-0.7c0.9-1.9,2.4-2,4.2-1.4c1.8,0.5,3.6,0.9,5.4,1.3c2.3,0.5,1.6,2.2,1.3,3.5
			c-0.7,3-1.8,6-2.5,9c-0.2,0.8,0.4,1.9,0.7,2.8c0.9-0.4,2.2-0.7,2.5-1.4c1.4-3,3.1-6.1,3.5-9.2c0.7-7.3,5.5-10.6,11.2-13.4
			c3.9-1.9,8.4-3.1,10.3-7.7c0.6-1.4,1.2-2.8,2.1-5c0.1,1.5,0.2,2.1,0.3,3.4c1.2-1.6,1.9-3,3-4.1c1.3-1.3,2.7-2.8,4.4-3.5
			c3-1.2,5.5-3.9,9.2-3.2c0.2,0,0.7-0.4,0.8-0.7c0.8-3.2,3.5-4.3,6-5.3c2.8-1.1,5.7-1.8,8.7-2.5c0.7-0.2,1.5,0,2.7,0
			c-1.7,1.4-3.1,2.6-4.5,3.8c0.1,0.2,0.3,0.3,0.4,0.5c3.6-1.1,7.2-2.2,11.4-3.4c-2.5-1.2-4.4-2-6.5-3c1.2-1.9,2.1-3.3,3.2-5.1
			c-2.8,0.3-5.6,0.6-8.4,0.8c0-0.3-0.1-0.6-0.1-0.9c5-0.9,10.1-1.8,15.1-2.9c2.3-0.5,4.5-1.4,6.5-2.4c1-0.5,2-1.9,2-2.9
			c0-0.7-1.7-1.5-2.7-2.1c-1.8-0.9-3.7-1.6-4.9-2.2c0-2,0.3-3.2-0.1-4.1c-0.8-1.8-2.4-2.8-4.3-2.2c-4.6,1.4-8.9,0.5-13.1-1.6
			c-2.9-1.5-5.5-0.8-7.7,1.5c-1,1-2.3,1.7-3.7,2.6c0.1,0.3,0.2,0.8,0.5,1.3c1,1.7,0.7,2.8-1.3,3.6c-2,0.9-4.4,1.6-4.7,4.6
			c-0.1,0.6-1.6,1-2.4,1.6c-0.2-0.9-0.5-1.8-0.7-2.7c-0.1-0.5,0-1.1,0-1.3c-3.5-1.4-6.8-2.8-10.4-4.2c-1-2.5,0.4-3.8,3-4.8
			c2.8-1.1,5.2-3.2,8-4.2c2.6-0.9,5.5-0.9,8.3-1c3.1-0.2,6.3,0,9.7-0.7c-1.1-0.7-2.2-1.3-2.9-1.7c2.9-1.6,6-3.3,9.1-5
			c2-1.2,4.4-0.6,5.6,1.3c0.3,0.5,1.3,0.5,2,0.8c0.1,0.1,0.3,0.3,0.4,0.4c-1.6,1-3.2,2.2-4.9,2.8c-1.6,0.6-3.5,0.7-5.2,1
			c0,0.3,0.1,0.6,0.1,0.8c0.6,0,1.2,0.1,1.8,0c3.6-0.9,6.9,0.1,10,2c1,0.6,2.4,0.4,4.5,0.6c-1-1.2-1.5-1.8-2.2-2.6
			c1.2-0.4,2.4-0.7,3.9-1.2c-0.8-1-1.3-1.7-2.1-2.6c1.9-0.1,3.6-0.2,5.5-0.3c-3.9-5-9.2-4.8-14.1-5.9c-3.9-0.9-7.9-1.5-11.9-1.8
			c-2.3-0.1-4.7,0.9-7.1,1.3c0.6,1,0.9,1.5,1.3,2.1C346,98.6,345.9,98.6,345.7,98.6z"/>
		<path class="st16" d="M606.5,241.3c0,3.7,0.2,7.4,0,11.1c-3,44.1-19.1,82.5-50,114.9c-0.9-3.4-0.1-6.1,3.1-7.8
			c4.9-2.6,5.4-7.5,3.4-11.8c-1.3-2.7-1.2-4.8,1.1-7.8c2.9-3.8,6.7-6.1,10.3-8.7c2.4-1.8,3.4-4.4,3.4-7.4c0-3.5,0-7,0-10.5
			c0-0.8,0.5-1.5,0.5-2.3c0-1.5,0.4-3.4-0.4-4.6c-3.5-5.6-3.6-11.8-2-17.6c2.3-8,6.5-15.1,13.5-20.4c5.6-4.2,8.6-10.5,11.9-16.5
			c1.8-3.3,3.1-6.9,4.6-10.4C606,241.3,606.3,241.3,606.5,241.3z"/>
		<path class="st17" d="M345.7,98.6c0.2,0,0.3,0,0.5,0c2.3,0.3,4.5,0.6,6.9,0.9c-2.3,3-4.1,3.2-6.9,1.8
			C344.3,100.4,345.2,99.6,345.7,98.6z"/>
		<path class="st15" d="M366.2,101.8c0.3-0.2,0.5-0.3,0.8-0.5c-0.1,0.3-0.3,0.6-0.4,0.9C366.4,102.1,366.3,102,366.2,101.8z"/>
	</g>
</g>
</svg>
